<?xml version="1.0" standalone="no"?>
<!DOCTYPE svg PUBLIC "-//W3C//DTD SVG 20010904//EN"
 "http://www.w3.org/TR/2001/REC-SVG-20010904/DTD/svg10.dtd">
<svg version="1.0" xmlns="http://www.w3.org/2000/svg"
 width="1280.000000pt" height="1160.000000pt" viewBox="0 0 1280.000000 1160.000000"
 preserveAspectRatio="xMidYMid meet">
<metadata>
Created by potrace 1.15, written by Peter Selinger 2001-2017
</metadata>
<g transform="translate(0.000000,1160.000000) scale(0.100000,-0.100000)"
fill="#000000" stroke="none">
<path d="M4630 11178 c-111 -22 -184 -30 -227 -24 -52 7 -58 2 -76 -55 -3 -9
-25 -21 -51 -28 -31 -8 -56 -23 -78 -48 -18 -20 -39 -41 -47 -47 -7 -6 -28
-26 -46 -43 -17 -18 -39 -33 -48 -33 -32 0 -97 -87 -97 -130 0 -17 -9 -30 -28
-41 -28 -16 -56 -75 -69 -144 -3 -16 -12 -39 -19 -50 -8 -11 -14 -28 -14 -38
0 -10 -7 -28 -15 -41 -9 -13 -15 -41 -15 -62 1 -22 -4 -68 -10 -104 -6 -36 -8
-77 -5 -91 3 -14 1 -48 -6 -75 -14 -60 -16 -84 -23 -253 -5 -117 -8 -137 -26
-156 -11 -12 -20 -33 -20 -47 0 -14 -7 -31 -15 -38 -8 -6 -17 -21 -21 -33 -4
-11 -15 -28 -25 -36 -10 -9 -20 -29 -22 -44 -2 -16 -8 -32 -14 -35 -5 -4 -15
-17 -22 -29 -8 -16 -21 -23 -41 -23 -16 0 -31 -4 -34 -9 -7 -11 -88 -51 -104
-51 -6 0 -37 -13 -67 -30 -30 -16 -63 -30 -73 -30 -9 0 -44 -14 -76 -30 -32
-17 -68 -30 -80 -30 -12 0 -30 -6 -41 -14 -11 -7 -37 -19 -57 -25 -20 -7 -42
-19 -48 -27 -7 -7 -28 -14 -46 -14 -18 0 -51 -7 -73 -16 -31 -12 -43 -25 -56
-56 -27 -67 -10 -105 63 -142 42 -21 77 -15 131 25 23 16 47 29 55 29 7 0 30
7 51 16 20 8 39 13 42 11 7 -8 -58 -57 -85 -63 -40 -9 -110 -52 -122 -74 -18
-34 -12 -97 12 -125 27 -30 95 -49 130 -36 40 16 88 80 88 118 0 25 47 68 129
118 9 6 36 29 61 53 24 24 55 50 70 57 14 7 32 23 40 34 8 12 20 21 27 21 7 0
24 12 38 27 19 22 25 24 25 11 0 -9 -6 -21 -14 -25 -7 -4 -19 -19 -26 -33 -7
-13 -24 -33 -37 -43 -12 -10 -23 -23 -23 -29 0 -6 -10 -21 -22 -34 -13 -13
-35 -39 -50 -56 -15 -18 -47 -57 -72 -86 -25 -29 -46 -59 -46 -67 0 -8 -15
-21 -34 -29 -18 -8 -46 -30 -61 -50 -22 -29 -26 -43 -22 -72 13 -77 58 -107
135 -92 53 11 92 62 93 123 0 36 6 44 50 80 27 22 55 52 62 67 7 14 36 51 65
82 39 41 57 54 68 48 12 -7 11 -14 -11 -46 -14 -20 -25 -41 -25 -46 0 -19 -83
-130 -97 -130 -27 0 -86 -98 -77 -127 19 -58 30 -76 57 -89 25 -13 36 -14 74
-4 24 7 51 22 59 34 23 34 36 93 25 115 -8 14 -7 22 4 31 8 7 15 18 15 24 0 7
14 25 30 41 17 16 30 34 30 40 0 6 9 18 20 28 11 9 20 26 20 37 0 19 34 77 54
91 4 4 9 21 11 38 1 18 7 37 14 44 6 6 11 19 11 29 0 22 67 68 88 61 9 -4 24
5 39 23 24 28 24 28 17 4 -4 -14 -6 -41 -6 -61 1 -22 -4 -42 -13 -49 -8 -7
-15 -25 -15 -41 0 -15 -4 -31 -10 -34 -5 -3 -10 -16 -10 -27 0 -12 -9 -31 -20
-43 -11 -11 -21 -30 -23 -40 -7 -34 -44 -110 -61 -124 -9 -7 -16 -22 -16 -32
0 -11 -13 -38 -30 -61 -16 -22 -30 -53 -30 -68 0 -16 -7 -30 -15 -34 -8 -3
-25 -25 -36 -49 -50 -103 21 -192 125 -156 46 16 77 65 79 124 1 44 10 44 37
0 12 -19 29 -39 37 -44 14 -8 15 -13 3 -41 -21 -50 -58 -89 -109 -114 -108
-55 -301 -130 -514 -200 -125 -41 -264 -94 -309 -118 -200 -104 -352 -320
-399 -568 -84 -445 -105 -590 -119 -813 -20 -312 -55 -492 -175 -898 -35 -119
-87 -318 -115 -441 -72 -315 -79 -340 -184 -621 -144 -384 -229 -683 -266
-934 -23 -151 -48 -359 -85 -683 -29 -254 -53 -405 -94 -589 -16 -69 -32 -143
-35 -163 -14 -82 -81 -122 -269 -165 -114 -25 -203 -55 -275 -92 -23 -11 -60
-21 -82 -21 -23 0 -70 -11 -105 -25 -82 -33 -163 -48 -248 -46 -77 3 -130 -6
-121 -20 14 -24 -17 -37 -84 -34 -37 1 -84 -1 -105 -7 -35 -8 -37 -11 -32 -41
10 -55 35 -70 137 -83 51 -7 121 -10 156 -7 34 3 62 2 62 -3 0 -5 -18 -19 -40
-32 -43 -24 -47 -38 -29 -91 17 -49 59 -66 154 -65 82 2 121 12 234 59 53 23
94 30 230 41 91 8 190 21 220 30 29 8 60 13 69 9 27 -10 80 7 110 36 18 17 64
41 118 60 114 40 154 61 192 99 39 39 82 149 125 325 43 176 76 261 305 780
194 441 253 587 332 825 79 238 180 671 230 985 34 214 54 293 130 510 27 77
79 239 115 360 103 340 172 555 237 735 l60 165 -4 128 -5 128 30 -48 c17 -26
66 -121 109 -210 94 -192 93 -189 108 -548 14 -366 34 -480 105 -601 39 -66
149 -179 221 -226 68 -45 73 -52 346 -518 47 -80 127 -215 177 -300 150 -252
190 -348 197 -470 3 -41 9 -208 14 -370 8 -271 31 -502 66 -673 5 -26 4 -27
-33 -27 -59 0 -150 -16 -373 -66 -459 -103 -695 -175 -1055 -324 -77 -32 -225
-92 -330 -133 -454 -180 -657 -305 -737 -454 -30 -55 -63 -182 -73 -283 -12
-122 23 -266 102 -425 111 -223 243 -342 458 -414 114 -38 234 -48 453 -39
197 8 297 20 502 60 l155 30 470 -7 c757 -11 1299 22 1985 121 225 32 400 40
533 25 95 -12 110 -11 191 8 124 30 216 34 501 23 239 -9 258 -12 440 -52 105
-23 271 -60 370 -81 147 -32 197 -48 275 -86 101 -49 163 -61 235 -46 29 6 44
16 53 36 9 18 21 27 37 27 23 0 65 34 65 52 0 4 18 8 40 8 60 0 95 37 86 91
-6 36 -4 39 17 39 13 0 31 8 40 18 22 24 22 99 1 123 -15 16 -14 20 6 41 12
13 24 35 27 51 3 15 10 30 15 33 10 6 104 -60 365 -258 303 -230 517 -361 747
-459 217 -93 295 -113 425 -107 121 6 180 24 370 114 96 46 123 64 180 122
120 122 153 216 126 360 -17 91 -59 209 -100 277 -27 47 -156 179 -210 217
l-32 21 44 42 c41 40 55 77 33 90 -6 4 -3 16 7 31 10 15 16 45 16 72 -1 26 3
64 8 84 7 27 5 48 -6 80 -8 24 -15 52 -15 63 0 11 -7 34 -16 50 -9 17 -16 47
-15 67 3 66 -65 107 -122 75 -26 -16 -30 -16 -60 1 -29 15 -69 17 -382 18
-192 0 -371 1 -397 2 -43 2 -55 9 -170 105 -68 57 -226 198 -353 312 -362 327
-784 658 -1007 791 -224 133 -399 210 -600 264 -123 34 -176 60 -225 112 -17
18 -85 112 -150 208 -178 262 -292 415 -390 525 -48 55 -136 153 -195 220
-126 141 -163 207 -213 387 -112 403 -156 573 -165 634 -17 118 -13 196 16
280 60 179 41 316 -77 551 -52 105 -79 175 -104 268 -19 70 -41 146 -50 169
-9 24 -15 53 -13 66 2 19 9 13 44 -36 350 -504 412 -591 565 -794 81 -107 205
-265 275 -350 70 -85 182 -227 250 -316 224 -291 316 -385 447 -455 111 -59
220 -33 309 74 23 27 84 83 137 125 53 42 123 101 156 132 33 31 107 92 165
136 158 118 392 358 550 563 158 205 308 384 417 499 l78 84 165 25 c352 53
414 61 510 71 41 4 89 15 107 25 24 13 56 17 133 17 124 0 286 25 320 49 14 9
36 40 50 67 14 27 57 110 97 184 74 138 90 190 100 321 l5 56 -38 1 c-21 1
-49 -5 -62 -14 -13 -9 -24 -14 -25 -12 -1 2 -1 41 1 88 l3 85 88 -3 c141 -6
157 2 299 141 191 188 253 280 268 394 3 29 10 53 14 53 4 0 18 -8 31 -19 27
-20 47 -17 67 10 9 13 21 16 46 12 28 -4 36 -1 45 16 8 14 21 21 41 21 45 0
60 10 60 39 0 19 10 34 30 49 24 18 29 28 24 47 -5 19 1 34 25 61 22 25 29 40
23 50 -5 9 -4 32 2 55 8 30 7 45 -2 59 -15 25 -15 53 -1 67 6 6 13 47 15 91 2
70 0 82 -17 98 -17 15 -19 26 -14 67 6 39 4 51 -9 60 -10 7 -20 34 -24 62 -6
39 -13 52 -32 62 -15 7 -28 26 -35 50 -8 28 -17 39 -33 41 -13 2 -33 20 -48
43 -19 30 -30 39 -44 34 -18 -6 -60 27 -60 47 0 4 -14 8 -30 8 -17 0 -44 10
-60 21 -18 14 -37 20 -51 16 -12 -3 -38 0 -56 8 -30 13 -39 13 -69 0 -20 -8
-38 -14 -42 -14 -31 5 -65 -4 -83 -22 -11 -11 -36 -23 -56 -26 -23 -4 -37 -13
-43 -28 -5 -14 -20 -25 -39 -28 -21 -5 -35 -15 -41 -32 -5 -14 -22 -31 -37
-37 -16 -7 -40 -24 -54 -39 -26 -27 -28 -27 -71 -14 -67 20 -261 38 -339 32
l-69 -6 -10 42 c-6 23 -15 50 -20 59 -6 10 -10 24 -10 31 0 7 -11 23 -25 35
-14 12 -25 26 -25 32 0 12 -123 50 -164 50 -48 0 -142 -32 -178 -60 -51 -40
-98 -90 -98 -105 0 -8 -9 -29 -20 -47 -22 -36 -26 -68 -10 -84 6 -6 6 -20 -2
-41 -9 -25 -9 -40 2 -73 14 -42 14 -43 -15 -66 -100 -81 -116 -99 -147 -162
-37 -72 -58 -109 -92 -157 -27 -39 -29 -153 -2 -203 19 -36 16 -62 -8 -62 -20
0 -50 -60 -36 -74 7 -7 10 -6 10 2 0 8 9 10 25 6 15 -4 32 -1 40 6 8 7 15 10
15 8 0 -2 5 -30 11 -61 11 -64 2 -109 -54 -251 -44 -113 -50 -246 -11 -246 16
0 53 -72 54 -105 0 -11 -9 -37 -20 -58 -11 -21 -18 -41 -16 -46 3 -4 -1 -25
-9 -47 -8 -21 -14 -65 -15 -96 l0 -57 -67 -46 c-38 -25 -102 -68 -143 -94 -46
-31 -109 -86 -162 -144 -48 -52 -123 -123 -165 -158 -88 -70 -426 -298 -621
-418 -168 -103 -579 -377 -613 -408 l-26 -24 -64 107 c-81 134 -206 301 -394
524 -195 232 -363 442 -409 511 -20 31 -72 136 -116 233 -87 195 -251 482
-462 810 -126 195 -330 328 -541 355 -39 5 -173 6 -296 4 -126 -3 -222 -2
-219 3 29 60 40 96 45 149 5 57 8 64 30 70 31 7 67 83 55 115 -6 17 -2 28 20
50 30 30 36 67 17 99 -7 10 -9 32 -5 54 5 29 14 39 50 56 27 14 50 34 62 56
20 38 20 40 -49 162 -16 28 -28 74 -37 143 -13 96 -12 103 4 116 10 7 16 19
13 27 -3 8 -1 19 5 25 7 7 4 14 -9 22 -23 15 -20 65 7 95 32 36 40 63 40 128
0 61 -61 373 -93 479 -13 40 -13 49 -1 59 34 28 -4 117 -60 139 -31 12 -36 18
-36 45 0 26 -13 43 -77 102 -110 102 -136 123 -151 123 -7 0 -25 8 -40 18 -46
30 -66 41 -102 58 -19 9 -48 22 -63 30 -16 8 -33 14 -39 14 -5 0 -21 9 -35 20
-14 11 -38 20 -54 20 -15 0 -31 5 -34 10 -3 6 -15 10 -26 10 -11 0 -32 6 -47
14 -16 8 -59 19 -97 25 -39 6 -92 15 -120 20 -65 13 -230 18 -275 9z m-674
-1765 c17 -22 18 -65 2 -81 -14 -14 -68 -16 -68 -3 0 5 7 14 15 21 8 7 15 21
15 30 0 22 10 50 17 50 3 0 12 -8 19 -17z m7938 -377 c11 4 22 0 32 -14 8 -12
21 -18 33 -15 12 3 20 -2 24 -16 3 -13 13 -21 26 -21 14 0 21 -6 21 -20 0 -13
10 -24 25 -30 16 -6 23 -15 19 -24 -4 -10 3 -20 20 -27 24 -11 25 -14 12 -34
-13 -20 -13 -25 1 -44 8 -13 12 -32 9 -44 -4 -15 1 -27 17 -39 l22 -17 -23
-24 c-14 -15 -20 -30 -16 -41 4 -10 1 -28 -6 -40 -9 -18 -9 -29 -1 -44 9 -18
8 -23 -9 -32 -11 -6 -20 -20 -20 -30 0 -11 -7 -20 -15 -20 -9 0 -19 -8 -22
-17 -12 -30 -46 -52 -71 -46 -12 3 -29 0 -37 -7 -13 -11 -15 -1 -15 76 0 105
-17 174 -61 252 -36 65 -116 164 -164 204 -25 21 -31 33 -28 53 4 18 12 25 29
25 17 0 24 6 24 20 0 15 7 20 24 20 14 0 27 4 31 10 3 5 12 7 20 4 7 -3 22 -1
32 5 14 8 21 6 33 -10 11 -13 22 -18 34 -13z m-6683 -417 c70 -20 72 -32 4
-25 -54 6 -74 17 -75 40 0 4 6 6 14 3 8 -3 34 -11 57 -18z m5735 -877 c5 -4
15 -57 22 -117 16 -145 15 -151 -5 -152 -10 0 -62 -3 -116 -7 -59 -4 -96 -3
-93 2 7 12 101 28 180 31 27 1 28 3 22 35 -4 18 -18 61 -31 95 -27 67 -32 107
-12 114 17 8 21 8 33 -1z m-218 -287 c-3 -3 -30 -8 -59 -12 -31 -3 -59 -12
-66 -21 -12 -14 -13 -14 -13 1 0 9 0 20 0 24 0 4 28 9 62 11 35 2 65 6 67 8 2
2 7 2 9 -1 3 -3 3 -7 0 -10z m347 -265 c-3 -5 -12 -10 -18 -10 -7 0 -6 4 3 10
19 12 23 12 15 0z m-4133 -5301 c65 -45 210 -116 257 -125 51 -10 46 -24 -7
-24 -117 0 -265 -75 -343 -173 -24 -31 -50 -58 -57 -61 -8 -3 -51 -9 -97 -12
l-84 -7 44 87 c42 83 65 172 65 248 0 33 3 36 44 48 25 7 60 23 78 36 18 13
35 23 38 24 2 0 30 -18 62 -41z m814 -215 c44 -18 159 -54 255 -80 95 -25 176
-48 179 -51 3 -3 -98 -3 -225 -1 -263 5 -244 1 -440 107 l-130 71 140 -6 c130
-6 146 -8 221 -40z m1140 -559 c10 -8 14 -15 8 -15 -5 0 -19 7 -30 15 -10 8
-14 15 -8 15 5 0 19 -7 30 -15z"/>
<path d="M5950 9809 c-22 -18 -22 -19 -3 -10 12 6 25 16 28 21 9 15 3 12 -25
-11z"/>
</g>
</svg>
